<mxfile host="app.diagrams.net" modified="2023-06-26T04:14:54.026Z" agent="Mozilla/5.0 (Windows NT 10.0; Win64; x64) AppleWebKit/537.36 (KHTML, like Gecko) Chrome/114.0.0.0 Safari/537.36" etag="IePOPfH8aen_5SDhUfdB" version="21.5.0" type="github">
  <diagram name="第 1 页" id="HWITXr4U1GYgSd3IytPU">
    <mxGraphModel dx="794" dy="438" grid="1" gridSize="10" guides="1" tooltips="1" connect="1" arrows="1" fold="1" page="1" pageScale="1" pageWidth="827" pageHeight="1169" math="0" shadow="0">
      <root>
        <mxCell id="0" />
        <mxCell id="1" parent="0" />
        <mxCell id="PEoJVLBWArp1pL08wdkR-1" value="" style="ellipse;whiteSpace=wrap;html=1;" vertex="1" parent="1">
          <mxGeometry x="100" y="110" width="120" height="80" as="geometry" />
        </mxCell>
        <mxCell id="PEoJVLBWArp1pL08wdkR-3" value="" style="swimlane;startSize=0;" vertex="1" parent="1">
          <mxGeometry x="310" y="130" width="60" height="60" as="geometry" />
        </mxCell>
      </root>
    </mxGraphModel>
  </diagram>
</mxfile>
